<svg width="50" height="50" viewBox="0 0 50 50" fill="none" xmlns="http://www.w3.org/2000/svg">
<path d="M30.4111 10C35.7826 10 40.0801 14.4444 40.0801 20V24.4443C40.0801 29.9999 35.7826 34.4443 30.4111 34.4443H25.3623C20.4207 34.4444 15.5862 36.333 11.8262 39.7773C11.6113 39.8885 11.2891 40 11.0742 40C10.9668 40 10.7519 39.9998 10.6445 39.8887C10.2149 39.6665 10 39.3331 10 38.8887V20C10 14.4444 14.2975 10 19.6689 10H30.4111ZM19.6689 10.8828C14.8126 10.8828 10.8828 14.9035 10.8828 20V38.8887C10.8828 38.9617 10.8974 38.9865 10.9023 38.9941C10.9097 39.0056 10.9419 39.0497 11.0498 39.1055L11.0723 39.1172C11.076 39.1166 11.0809 39.1154 11.0869 39.1143C11.1122 39.1094 11.1468 39.1008 11.1885 39.0879C11.2372 39.0728 11.2862 39.0546 11.3301 39.0361C15.2349 35.5036 20.2391 33.5625 25.3623 33.5625H30.4111C35.2675 33.5625 39.1982 29.5408 39.1982 24.4443V20C39.1982 14.9035 35.2675 10.8828 30.4111 10.8828H19.6689ZM21.0293 20.5879C21.7603 20.5879 22.3525 21.1811 22.3525 21.9121C22.3524 22.6429 21.7601 23.2354 21.0293 23.2354C20.2985 23.2353 19.7062 22.6429 19.7061 21.9121C19.7061 21.1812 20.2984 20.588 21.0293 20.5879ZM25.4414 20.5879C26.1723 20.588 26.7646 21.1812 26.7646 21.9121C26.7645 22.6428 26.1721 23.2352 25.4414 23.2354C24.7106 23.2354 24.1174 22.6429 24.1172 21.9121C24.1172 21.1811 24.7104 20.5879 25.4414 20.5879ZM29.8525 20.5879C30.5835 20.5879 31.1768 21.1811 31.1768 21.9121C31.1766 22.6429 30.5834 23.2354 29.8525 23.2354C29.1219 23.2351 28.5295 22.6428 28.5293 21.9121C28.5293 21.1813 29.1218 20.5881 29.8525 20.5879Z" fill="black"/>
</svg>
